<?xml version="1.0" standalone="no"?>
<!DOCTYPE svg PUBLIC "-//W3C//DTD SVG 20010904//EN"
 "http://www.w3.org/TR/2001/REC-SVG-20010904/DTD/svg10.dtd">
<svg version="1.0" xmlns="http://www.w3.org/2000/svg"
 width="260.000000pt" height="260.000000pt" viewBox="0 0 260.000000 260.000000"
 preserveAspectRatio="xMidYMid meet">
<metadata>
Created by potrace 1.11, written by Peter Selinger 2001-2013
</metadata>
<g transform="translate(0.000000,260.000000) scale(0.100000,-0.100000)"
fill="#000000" stroke="none">
<path d="M390 2465 l0 -131 903 2 c496 1 905 2 909 3 4 0 7 57 7 126 0 69 -3
126 -7 126 -4 1 -413 2 -909 3 l-903 1 0 -130z"/>
<path d="M2 2077 l3 -132 1295 0 1295 0 0 130 0 130 -1298 2 -1298 1 3 -131z"/>
<path d="M390 1686 l0 -131 910 0 909 0 0 131 -1 132 -909 -1 -909 0 0 -131z"/>
<path d="M390 1300 c0 -128 0 -130 23 -131 26 0 1766 0 1784 1 8 0 12 38 12
130 l1 130 -910 0 -910 0 0 -130z"/>
<path d="M390 520 l0 -520 909 0 910 0 0 520 -1 520 -129 0 -129 0 -1 -42 c-1
-24 0 -53 1 -65 1 -22 -2 -23 -64 -23 l-66 0 0 65 0 66 -132 -3 -132 -3 1 -62
1 -63 -64 0 -64 0 0 65 0 65 -130 0 -130 0 0 -65 0 -65 -64 0 -64 0 0 53 c0
28 0 58 -1 65 -1 9 -34 12 -131 12 l-130 0 0 -65 0 -65 -64 0 -65 0 1 48 c0
90 13 82 -132 82 l-130 0 0 -520z m1556 -68 c2 -190 2 -192 -20 -193 -28 -1
-1202 -1 -1243 0 l-33 1 0 193 0 192 648 0 647 0 1 -193z"/>
</g>
</svg>
